<svg width="41" height="41" viewBox="0 0 41 41" fill="none" xmlns="http://www.w3.org/2000/svg">
<path d="M20.243 8.98596C19.8008 8.98596 19.3768 9.16161 19.0641 9.47428C18.7515 9.78694 18.5758 10.211 18.5758 10.6532C18.5758 11.0953 18.7515 11.5194 19.0641 11.8321C19.3768 12.1447 19.8008 12.3204 20.243 12.3204H33.5807C34.0229 12.3204 34.447 12.1447 34.7596 11.8321C35.0723 11.5194 35.2479 11.0953 35.2479 10.6532C35.2479 10.211 35.0723 9.78694 34.7596 9.47428C34.447 9.16161 34.0229 8.98596 33.5807 8.98596H20.243Z" fill="#FDA2D5"/>
<path d="M11.9092 20.6564C11.9092 20.2142 12.0848 19.7902 12.3975 19.4775C12.7102 19.1648 13.1342 18.9892 13.5764 18.9892H26.9141C27.3563 18.9892 27.7803 19.1648 28.093 19.4775C28.4057 19.7902 28.5813 20.2142 28.5813 20.6564C28.5813 21.0986 28.4057 21.5226 28.093 21.8353C27.7803 22.148 27.3563 22.3236 26.9141 22.3236H13.5764C13.1342 22.3236 12.7102 22.148 12.3975 21.8353C12.0848 21.5226 11.9092 21.0986 11.9092 20.6564Z" fill="#FDA2D5"/>
<path d="M5.23877 30.6596C5.23877 30.2174 5.41442 29.7934 5.72708 29.4807C6.03975 29.1681 6.46381 28.9924 6.90598 28.9924H20.2437C20.6859 28.9924 21.1099 29.1681 21.4226 29.4807C21.7352 29.7934 21.9109 30.2174 21.9109 30.6596C21.9109 31.1018 21.7352 31.5258 21.4226 31.8385C21.1099 32.1512 20.6859 32.3268 20.2437 32.3268H6.90598C6.46381 32.3268 6.03975 32.1512 5.72708 31.8385C5.41442 31.5258 5.23877 31.1018 5.23877 30.6596Z" fill="#FDA2D5"/>
</svg>
