<svg width="37" height="37" viewBox="0 0 37 37" fill="none" xmlns="http://www.w3.org/2000/svg">
<path d="M26.4094 2.7226H10.0916C8.85014 2.7226 7.84082 3.73191 7.84082 4.97333V31.9822C7.84082 33.2236 8.85014 34.2329 10.0916 34.2329H26.4094C27.6508 34.2329 28.6601 33.2236 28.6601 31.9822V4.97333C28.6601 3.73191 27.6508 2.7226 26.4094 2.7226ZM26.1281 31.7008H10.3729V5.25467H26.1281V31.7008ZM16.8438 28.1137C16.8438 28.4868 16.992 28.8446 17.2558 29.1084C17.5196 29.3722 17.8774 29.5204 18.2505 29.5204C18.6236 29.5204 18.9814 29.3722 19.2452 29.1084C19.509 28.8446 19.6572 28.4868 19.6572 28.1137C19.6572 27.7406 19.509 27.3828 19.2452 27.119C18.9814 26.8552 18.6236 26.707 18.2505 26.707C17.8774 26.707 17.5196 26.8552 17.2558 27.119C16.992 27.3828 16.8438 27.7406 16.8438 28.1137Z" fill="#6252CE"/>
</svg>
