<svg width="168" height="145" viewBox="0 0 168 145" fill="none" xmlns="http://www.w3.org/2000/svg">
<path d="M6.05037 3.44141C6.05037 5.09881 4.70678 6.4424 3.04938 6.4424C1.39199 6.4424 0.0484009 5.09881 0.0484009 3.44141C0.0484009 1.78402 1.39199 0.44043 3.04938 0.44043C4.70678 0.44043 6.05037 1.78402 6.05037 3.44141Z" fill="#F0F0F0"/>
<path d="M6.05037 26.4489C6.05037 28.1063 4.70678 29.4499 3.04938 29.4499C1.39199 29.4499 0.0484009 28.1063 0.0484009 26.4489C0.0484009 24.7915 1.39199 23.448 3.04938 23.448C4.70678 23.448 6.05037 24.7915 6.05037 26.4489Z" fill="#F0F0F0"/>
<path d="M6.05037 49.4565C6.05037 51.1139 4.70678 52.4575 3.04938 52.4575C1.39199 52.4575 0.0484009 51.1139 0.0484009 49.4565C0.0484009 47.7991 1.39199 46.4555 3.04938 46.4555C4.70678 46.4555 6.05037 47.7991 6.05037 49.4565Z" fill="#F0F0F0"/>
<path d="M6.05037 72.464C6.05037 74.1214 4.70678 75.465 3.04938 75.465C1.39199 75.465 0.0484009 74.1214 0.0484009 72.464C0.0484009 70.8066 1.39199 69.463 3.04938 69.463C4.70678 69.463 6.05037 70.8066 6.05037 72.464Z" fill="#F0F0F0"/>
<path d="M6.05037 95.4715C6.05037 97.1289 4.70678 98.4725 3.04938 98.4725C1.39199 98.4725 0.0484009 97.1289 0.0484009 95.4715C0.0484009 93.8142 1.39199 92.4706 3.04938 92.4706C4.70678 92.4706 6.05037 93.8142 6.05037 95.4715Z" fill="#F0F0F0"/>
<path d="M6.05037 118.479C6.05037 120.136 4.70678 121.48 3.04938 121.48C1.39199 121.48 0.0484009 120.136 0.0484009 118.479C0.0484009 116.822 1.39199 115.478 3.04938 115.478C4.70678 115.478 6.05037 116.822 6.05037 118.479Z" fill="#F0F0F0"/>
<path d="M6.05037 141.487C6.05037 143.144 4.70678 144.488 3.04938 144.488C1.39199 144.488 0.0484009 143.144 0.0484009 141.487C0.0484009 139.829 1.39199 138.486 3.04938 138.486C4.70678 138.486 6.05037 139.829 6.05037 141.487Z" fill="#F0F0F0"/>
<path d="M29.0579 3.44141C29.0579 5.09881 27.7143 6.4424 26.0569 6.4424C24.3995 6.4424 23.0559 5.09881 23.0559 3.44141C23.0559 1.78402 24.3995 0.44043 26.0569 0.44043C27.7143 0.44043 29.0579 1.78402 29.0579 3.44141Z" fill="#F0F0F0"/>
<path d="M29.0579 26.4489C29.0579 28.1063 27.7143 29.4499 26.0569 29.4499C24.3995 29.4499 23.0559 28.1063 23.0559 26.4489C23.0559 24.7915 24.3995 23.448 26.0569 23.448C27.7143 23.448 29.0579 24.7915 29.0579 26.4489Z" fill="#F0F0F0"/>
<path d="M29.0579 49.4565C29.0579 51.1139 27.7143 52.4575 26.0569 52.4575C24.3995 52.4575 23.0559 51.1139 23.0559 49.4565C23.0559 47.7991 24.3995 46.4555 26.0569 46.4555C27.7143 46.4555 29.0579 47.7991 29.0579 49.4565Z" fill="#F0F0F0"/>
<path d="M29.0579 72.464C29.0579 74.1214 27.7143 75.465 26.0569 75.465C24.3995 75.465 23.0559 74.1214 23.0559 72.464C23.0559 70.8066 24.3995 69.463 26.0569 69.463C27.7143 69.463 29.0579 70.8066 29.0579 72.464Z" fill="#F0F0F0"/>
<path d="M29.0579 95.4715C29.0579 97.1289 27.7143 98.4725 26.0569 98.4725C24.3995 98.4725 23.0559 97.1289 23.0559 95.4715C23.0559 93.8142 24.3995 92.4706 26.0569 92.4706C27.7143 92.4706 29.0579 93.8142 29.0579 95.4715Z" fill="#F0F0F0"/>
<path d="M29.0579 118.479C29.0579 120.136 27.7143 121.48 26.0569 121.48C24.3995 121.48 23.0559 120.136 23.0559 118.479C23.0559 116.822 24.3995 115.478 26.0569 115.478C27.7143 115.478 29.0579 116.822 29.0579 118.479Z" fill="#F0F0F0"/>
<path d="M29.0579 141.487C29.0579 143.144 27.7143 144.488 26.0569 144.488C24.3995 144.488 23.0559 143.144 23.0559 141.487C23.0559 139.829 24.3995 138.486 26.0569 138.486C27.7143 138.486 29.0579 139.829 29.0579 141.487Z" fill="#F0F0F0"/>
<path d="M52.0654 3.44141C52.0654 5.09881 50.7219 6.4424 49.0645 6.4424C47.4071 6.4424 46.0635 5.09881 46.0635 3.44141C46.0635 1.78402 47.4071 0.44043 49.0645 0.44043C50.7219 0.44043 52.0654 1.78402 52.0654 3.44141Z" fill="#F0F0F0"/>
<path d="M52.0654 26.4489C52.0654 28.1063 50.7219 29.4499 49.0645 29.4499C47.4071 29.4499 46.0635 28.1063 46.0635 26.4489C46.0635 24.7915 47.4071 23.448 49.0645 23.448C50.7219 23.448 52.0654 24.7915 52.0654 26.4489Z" fill="#F0F0F0"/>
<path d="M52.0654 49.4565C52.0654 51.1139 50.7219 52.4575 49.0645 52.4575C47.4071 52.4575 46.0635 51.1139 46.0635 49.4565C46.0635 47.7991 47.4071 46.4555 49.0645 46.4555C50.7219 46.4555 52.0654 47.7991 52.0654 49.4565Z" fill="#F0F0F0"/>
<path d="M52.0654 72.464C52.0654 74.1214 50.7219 75.465 49.0645 75.465C47.4071 75.465 46.0635 74.1214 46.0635 72.464C46.0635 70.8066 47.4071 69.463 49.0645 69.463C50.7219 69.463 52.0654 70.8066 52.0654 72.464Z" fill="#F0F0F0"/>
<path d="M52.0654 95.4715C52.0654 97.1289 50.7219 98.4725 49.0645 98.4725C47.4071 98.4725 46.0635 97.1289 46.0635 95.4715C46.0635 93.8142 47.4071 92.4706 49.0645 92.4706C50.7219 92.4706 52.0654 93.8142 52.0654 95.4715Z" fill="#F0F0F0"/>
<path d="M52.0654 118.479C52.0654 120.136 50.7219 121.48 49.0645 121.48C47.4071 121.48 46.0635 120.136 46.0635 118.479C46.0635 116.822 47.4071 115.478 49.0645 115.478C50.7219 115.478 52.0654 116.822 52.0654 118.479Z" fill="#F0F0F0"/>
<path d="M52.0654 141.487C52.0654 143.144 50.7219 144.488 49.0645 144.488C47.4071 144.488 46.0635 143.144 46.0635 141.487C46.0635 139.829 47.4071 138.486 49.0645 138.486C50.7219 138.486 52.0654 139.829 52.0654 141.487Z" fill="#F0F0F0"/>
<path d="M75.073 3.44141C75.073 5.09881 73.7294 6.4424 72.072 6.4424C70.4146 6.4424 69.071 5.09881 69.071 3.44141C69.071 1.78402 70.4146 0.44043 72.072 0.44043C73.7294 0.44043 75.073 1.78402 75.073 3.44141Z" fill="#F0F0F0"/>
<path d="M75.073 26.4489C75.073 28.1063 73.7294 29.4499 72.072 29.4499C70.4146 29.4499 69.071 28.1063 69.071 26.4489C69.071 24.7915 70.4146 23.448 72.072 23.448C73.7294 23.448 75.073 24.7915 75.073 26.4489Z" fill="#F0F0F0"/>
<path d="M75.073 49.4565C75.073 51.1139 73.7294 52.4575 72.072 52.4575C70.4146 52.4575 69.071 51.1139 69.071 49.4565C69.071 47.7991 70.4146 46.4555 72.072 46.4555C73.7294 46.4555 75.073 47.7991 75.073 49.4565Z" fill="#F0F0F0"/>
<path d="M75.073 72.464C75.073 74.1214 73.7294 75.465 72.072 75.465C70.4146 75.465 69.071 74.1214 69.071 72.464C69.071 70.8066 70.4146 69.463 72.072 69.463C73.7294 69.463 75.073 70.8066 75.073 72.464Z" fill="#F0F0F0"/>
<path d="M75.073 95.4715C75.073 97.1289 73.7294 98.4725 72.072 98.4725C70.4146 98.4725 69.071 97.1289 69.071 95.4715C69.071 93.8142 70.4146 92.4706 72.072 92.4706C73.7294 92.4706 75.073 93.8142 75.073 95.4715Z" fill="#F0F0F0"/>
<path d="M75.073 118.479C75.073 120.136 73.7294 121.48 72.072 121.48C70.4146 121.48 69.071 120.136 69.071 118.479C69.071 116.822 70.4146 115.478 72.072 115.478C73.7294 115.478 75.073 116.822 75.073 118.479Z" fill="#F0F0F0"/>
<path d="M75.073 141.487C75.073 143.144 73.7294 144.488 72.072 144.488C70.4146 144.488 69.071 143.144 69.071 141.487C69.071 139.829 70.4146 138.486 72.072 138.486C73.7294 138.486 75.073 139.829 75.073 141.487Z" fill="#F0F0F0"/>
<path d="M98.0805 3.44141C98.0805 5.09881 96.7369 6.4424 95.0795 6.4424C93.4221 6.4424 92.0786 5.09881 92.0786 3.44141C92.0786 1.78402 93.4221 0.44043 95.0795 0.44043C96.7369 0.44043 98.0805 1.78402 98.0805 3.44141Z" fill="#F0F0F0"/>
<path d="M98.0805 26.4489C98.0805 28.1063 96.7369 29.4499 95.0795 29.4499C93.4221 29.4499 92.0786 28.1063 92.0786 26.4489C92.0786 24.7915 93.4221 23.448 95.0795 23.448C96.7369 23.448 98.0805 24.7915 98.0805 26.4489Z" fill="#F0F0F0"/>
<path d="M98.0805 49.4565C98.0805 51.1139 96.7369 52.4575 95.0795 52.4575C93.4221 52.4575 92.0786 51.1139 92.0786 49.4565C92.0786 47.7991 93.4221 46.4555 95.0795 46.4555C96.7369 46.4555 98.0805 47.7991 98.0805 49.4565Z" fill="#F0F0F0"/>
<path d="M98.0805 72.464C98.0805 74.1214 96.7369 75.465 95.0795 75.465C93.4221 75.465 92.0786 74.1214 92.0786 72.464C92.0786 70.8066 93.4221 69.463 95.0795 69.463C96.7369 69.463 98.0805 70.8066 98.0805 72.464Z" fill="#F0F0F0"/>
<path d="M98.0805 95.4715C98.0805 97.1289 96.7369 98.4725 95.0795 98.4725C93.4221 98.4725 92.0786 97.1289 92.0786 95.4715C92.0786 93.8142 93.4221 92.4706 95.0795 92.4706C96.7369 92.4706 98.0805 93.8142 98.0805 95.4715Z" fill="#F0F0F0"/>
<path d="M98.0805 118.479C98.0805 120.136 96.7369 121.48 95.0795 121.48C93.4221 121.48 92.0786 120.136 92.0786 118.479C92.0786 116.822 93.4221 115.478 95.0795 115.478C96.7369 115.478 98.0805 116.822 98.0805 118.479Z" fill="#F0F0F0"/>
<path d="M98.0805 141.487C98.0805 143.144 96.7369 144.488 95.0795 144.488C93.4221 144.488 92.0786 143.144 92.0786 141.487C92.0786 139.829 93.4221 138.486 95.0795 138.486C96.7369 138.486 98.0805 139.829 98.0805 141.487Z" fill="#F0F0F0"/>
<path d="M121.088 3.44141C121.088 5.09881 119.744 6.4424 118.087 6.4424C116.43 6.4424 115.086 5.09881 115.086 3.44141C115.086 1.78402 116.43 0.44043 118.087 0.44043C119.744 0.44043 121.088 1.78402 121.088 3.44141Z" fill="#F0F0F0"/>
<path d="M121.088 26.4489C121.088 28.1063 119.744 29.4499 118.087 29.4499C116.43 29.4499 115.086 28.1063 115.086 26.4489C115.086 24.7915 116.43 23.448 118.087 23.448C119.744 23.448 121.088 24.7915 121.088 26.4489Z" fill="#F0F0F0"/>
<path d="M121.088 49.4565C121.088 51.1139 119.744 52.4575 118.087 52.4575C116.43 52.4575 115.086 51.1139 115.086 49.4565C115.086 47.7991 116.43 46.4555 118.087 46.4555C119.744 46.4555 121.088 47.7991 121.088 49.4565Z" fill="#F0F0F0"/>
<path d="M121.088 72.464C121.088 74.1214 119.744 75.465 118.087 75.465C116.43 75.465 115.086 74.1214 115.086 72.464C115.086 70.8066 116.43 69.463 118.087 69.463C119.744 69.463 121.088 70.8066 121.088 72.464Z" fill="#F0F0F0"/>
<path d="M121.088 95.4715C121.088 97.1289 119.744 98.4725 118.087 98.4725C116.43 98.4725 115.086 97.1289 115.086 95.4715C115.086 93.8142 116.43 92.4706 118.087 92.4706C119.744 92.4706 121.088 93.8142 121.088 95.4715Z" fill="#F0F0F0"/>
<path d="M121.088 118.479C121.088 120.136 119.744 121.48 118.087 121.48C116.43 121.48 115.086 120.136 115.086 118.479C115.086 116.822 116.43 115.478 118.087 115.478C119.744 115.478 121.088 116.822 121.088 118.479Z" fill="#F0F0F0"/>
<path d="M121.088 141.487C121.088 143.144 119.744 144.488 118.087 144.488C116.43 144.488 115.086 143.144 115.086 141.487C115.086 139.829 116.43 138.486 118.087 138.486C119.744 138.486 121.088 139.829 121.088 141.487Z" fill="#F0F0F0"/>
<path d="M144.096 3.44141C144.096 5.09881 142.752 6.4424 141.095 6.4424C139.437 6.4424 138.094 5.09881 138.094 3.44141C138.094 1.78402 139.437 0.44043 141.095 0.44043C142.752 0.44043 144.096 1.78402 144.096 3.44141Z" fill="#F0F0F0"/>
<path d="M144.096 26.4489C144.096 28.1063 142.752 29.4499 141.095 29.4499C139.437 29.4499 138.094 28.1063 138.094 26.4489C138.094 24.7915 139.437 23.448 141.095 23.448C142.752 23.448 144.096 24.7915 144.096 26.4489Z" fill="#F0F0F0"/>
<path d="M144.096 49.4565C144.096 51.1139 142.752 52.4575 141.095 52.4575C139.437 52.4575 138.094 51.1139 138.094 49.4565C138.094 47.7991 139.437 46.4555 141.095 46.4555C142.752 46.4555 144.096 47.7991 144.096 49.4565Z" fill="#F0F0F0"/>
<path d="M144.096 72.464C144.096 74.1214 142.752 75.465 141.095 75.465C139.437 75.465 138.094 74.1214 138.094 72.464C138.094 70.8066 139.437 69.463 141.095 69.463C142.752 69.463 144.096 70.8066 144.096 72.464Z" fill="#F0F0F0"/>
<path d="M144.096 95.4715C144.096 97.1289 142.752 98.4725 141.095 98.4725C139.437 98.4725 138.094 97.1289 138.094 95.4715C138.094 93.8142 139.437 92.4706 141.095 92.4706C142.752 92.4706 144.096 93.8142 144.096 95.4715Z" fill="#F0F0F0"/>
<path d="M144.096 118.479C144.096 120.136 142.752 121.48 141.095 121.48C139.437 121.48 138.094 120.136 138.094 118.479C138.094 116.822 139.437 115.478 141.095 115.478C142.752 115.478 144.096 116.822 144.096 118.479Z" fill="#F0F0F0"/>
<path d="M144.096 141.487C144.096 143.144 142.752 144.488 141.095 144.488C139.437 144.488 138.094 143.144 138.094 141.487C138.094 139.829 139.437 138.486 141.095 138.486C142.752 138.486 144.096 139.829 144.096 141.487Z" fill="#F0F0F0"/>
<path d="M167.103 3.44141C167.103 5.09881 165.76 6.4424 164.102 6.4424C162.445 6.4424 161.101 5.09881 161.101 3.44141C161.101 1.78402 162.445 0.44043 164.102 0.44043C165.76 0.44043 167.103 1.78402 167.103 3.44141Z" fill="#F0F0F0"/>
<path d="M167.103 26.4489C167.103 28.1063 165.76 29.4499 164.102 29.4499C162.445 29.4499 161.101 28.1063 161.101 26.4489C161.101 24.7915 162.445 23.448 164.102 23.448C165.76 23.448 167.103 24.7915 167.103 26.4489Z" fill="#F0F0F0"/>
<path d="M167.103 49.4565C167.103 51.1139 165.76 52.4575 164.102 52.4575C162.445 52.4575 161.101 51.1139 161.101 49.4565C161.101 47.7991 162.445 46.4555 164.102 46.4555C165.76 46.4555 167.103 47.7991 167.103 49.4565Z" fill="#F0F0F0"/>
<path d="M167.103 72.464C167.103 74.1214 165.76 75.465 164.102 75.465C162.445 75.465 161.101 74.1214 161.101 72.464C161.101 70.8066 162.445 69.463 164.102 69.463C165.76 69.463 167.103 70.8066 167.103 72.464Z" fill="#F0F0F0"/>
<path d="M167.103 95.4715C167.103 97.1289 165.76 98.4725 164.102 98.4725C162.445 98.4725 161.101 97.1289 161.101 95.4715C161.101 93.8142 162.445 92.4706 164.102 92.4706C165.76 92.4706 167.103 93.8142 167.103 95.4715Z" fill="#F0F0F0"/>
<path d="M167.103 118.479C167.103 120.136 165.76 121.48 164.102 121.48C162.445 121.48 161.101 120.136 161.101 118.479C161.101 116.822 162.445 115.478 164.102 115.478C165.76 115.478 167.103 116.822 167.103 118.479Z" fill="#F0F0F0"/>
<path d="M167.103 141.487C167.103 143.144 165.76 144.488 164.102 144.488C162.445 144.488 161.101 143.144 161.101 141.487C161.101 139.829 162.445 138.486 164.102 138.486C165.76 138.486 167.103 139.829 167.103 141.487Z" fill="#F0F0F0"/>
</svg>
